<svg xmlns="http://www.w3.org/2000/svg" viewBox="0 0 720 220" role="img" aria-labelledby="title desc">
  <title id="title">BossCare logo</title>
  <desc id="desc">Dog and cat inside a heart paw with medical cross, next to BossCare wordmark.</desc>
  <defs>
    <linearGradient id="markGradient" x1="120" x2="330" y1="25" y2="210" gradientUnits="userSpaceOnUse">
      <stop offset="0" stop-color="#063577"/>
      <stop offset="0.56" stop-color="#063577"/>
      <stop offset="1" stop-color="#10aeb6"/>
    </linearGradient>
    <linearGradient id="wordGradient" x1="380" x2="690" y1="105" y2="105" gradientUnits="userSpaceOnUse">
      <stop offset="0" stop-color="#063577"/>
      <stop offset="0.54" stop-color="#063577"/>
      <stop offset="0.55" stop-color="#10aeb6"/>
      <stop offset="1" stop-color="#10aeb6"/>
    </linearGradient>
  </defs>
  <g fill="url(#markGradient)">
    <ellipse cx="105" cy="48" rx="20" ry="29" transform="rotate(-12 105 48)"/>
    <ellipse cx="155" cy="31" rx="24" ry="36" transform="rotate(-5 155 31)"/>
    <ellipse cx="211" cy="31" rx="24" ry="36" transform="rotate(5 211 31)"/>
    <ellipse cx="261" cy="48" rx="20" ry="29" transform="rotate(12 261 48)"/>
    <path d="M183 203C121 161 68 124 84 78c11-32 53-39 88-11l11 9 11-9c35-28 77-21 88 11 16 46-37 83-99 125Z" fill="none" stroke="url(#markGradient)" stroke-linejoin="round" stroke-width="20"/>
    <path d="M174 194C126 159 91 127 99 91c22 11 43-44 82-16 18 13 4 47-25 42-20-3-22 43 18 77Z"/>
    <path d="M193 194c48-35 83-67 75-103-18-4-37 10-48 27-20 1-34 10-37 27-2 17 11 28 30 25-8 9-15 17-20 24Z" fill="#10aeb6"/>
    <rect x="144" y="151" width="44" height="18" rx="5" fill="#10aeb6"/>
    <rect x="157" y="138" width="18" height="44" rx="5" fill="#10aeb6"/>
  </g>
  <text x="340" y="137" fill="url(#wordGradient)" font-family="Arial, Helvetica, sans-serif" font-size="82" font-weight="800" letter-spacing="-4">BossCare</text>
</svg>
